<svg width="36" height="37" viewBox="0 0 36 37" fill="none" xmlns="http://www.w3.org/2000/svg">
<rect y="0.563477" width="36" height="36" rx="18" fill="white" fill-opacity="0.05"/>
<rect x="0.5" y="1.06348" width="35" height="35" rx="17.5" stroke="#ECECEC" stroke-opacity="0.4"/>
<path d="M18.0003 12.7305C14.7786 12.7305 12.167 15.3421 12.167 18.5638C12.167 21.4752 14.3002 23.8885 17.0892 24.326V20.2502H15.6075V18.5638H17.0892V17.2787C17.0892 15.8169 17.9595 15.0096 19.2924 15.0096C19.9306 15.0096 20.5979 15.1233 20.5979 15.1233V16.5583H19.8629C19.1378 16.5583 18.9121 17.0081 18.9121 17.4695V18.5638H20.5297L20.2712 20.2496H18.9121V24.326C21.7004 23.8891 23.8331 21.4758 23.8331 18.5638C23.8331 15.3421 21.2221 12.7305 18.0003 12.7305Z" fill="white"/>
</svg>
