<svg width="36" height="37" viewBox="0 0 36 37" fill="none" xmlns="http://www.w3.org/2000/svg">
<rect y="0.563477" width="36" height="36" rx="18" fill="white" fill-opacity="0.05"/>
<rect x="0.5" y="1.06348" width="35" height="35" rx="17.5" stroke="#ECECEC" stroke-opacity="0.4"/>
<path d="M18.5993 12.7305C19.2556 12.7322 19.5887 12.7357 19.8763 12.7439L19.9894 12.748C20.1201 12.7526 20.249 12.7585 20.4048 12.7655C21.0254 12.7946 21.4489 12.8926 21.8205 13.0367C22.2055 13.1849 22.5298 13.3856 22.8542 13.7093C23.1509 14.0008 23.3805 14.3536 23.5268 14.743C23.6708 15.1146 23.7688 15.5381 23.798 16.1593C23.805 16.3145 23.8108 16.4434 23.8155 16.5746L23.819 16.6878C23.8278 16.9748 23.8313 17.3079 23.8324 17.9641L23.833 18.3993V19.1635C23.8344 19.589 23.83 20.0144 23.8196 20.4398L23.8161 20.553C23.8114 20.6842 23.8056 20.8131 23.7986 20.9683C23.7694 21.5896 23.6703 22.0125 23.5268 22.3846C23.3805 22.774 23.1509 23.1268 22.8542 23.4183C22.5627 23.715 22.2099 23.9446 21.8205 24.0909C21.4489 24.235 21.0254 24.333 20.4048 24.3621L19.9894 24.3796L19.8763 24.3831C19.5887 24.3913 19.2556 24.3954 18.5993 24.3966L18.1642 24.3971H17.4006C16.9749 24.3986 16.5492 24.3942 16.1237 24.3837L16.0105 24.3802C15.872 24.375 15.7336 24.3689 15.5952 24.3621C14.9745 24.333 14.551 24.235 14.1788 24.0909C13.7897 23.9445 13.4371 23.715 13.1458 23.4183C12.8488 23.1268 12.6191 22.7741 12.4726 22.3846C12.3285 22.0131 12.2305 21.5896 12.2013 20.9683L12.1838 20.553L12.1809 20.4398C12.1702 20.0144 12.1653 19.589 12.1663 19.1635V17.9641C12.1647 17.5387 12.169 17.1132 12.1792 16.6878L12.1833 16.5746C12.1879 16.4434 12.1938 16.3145 12.2008 16.1593C12.2299 15.5381 12.3279 15.1151 12.472 14.743C12.6188 14.3534 12.849 14.0006 13.1463 13.7093C13.4375 13.4127 13.7899 13.1832 14.1788 13.0367C14.551 12.8926 14.9739 12.7946 15.5952 12.7655C15.7503 12.7585 15.8798 12.7526 16.0105 12.748L16.1237 12.7445C16.549 12.7341 16.9745 12.7296 17.4 12.7311L18.5993 12.7305ZM17.9997 15.6471C17.2261 15.6471 16.4843 15.9544 15.9373 16.5014C15.3903 17.0484 15.083 17.7903 15.083 18.5638C15.083 19.3373 15.3903 20.0792 15.9373 20.6262C16.4843 21.1732 17.2261 21.4805 17.9997 21.4805C18.7732 21.4805 19.5151 21.1732 20.0621 20.6262C20.6091 20.0792 20.9163 19.3373 20.9163 18.5638C20.9163 17.7903 20.6091 17.0484 20.0621 16.5014C19.5151 15.9544 18.7732 15.6471 17.9997 15.6471ZM17.9997 16.8138C18.2295 16.8138 18.4571 16.859 18.6694 16.9469C18.8817 17.0348 19.0747 17.1637 19.2372 17.3262C19.3997 17.4886 19.5287 17.6815 19.6166 17.8938C19.7046 18.1061 19.7499 18.3337 19.75 18.5635C19.75 18.7933 19.7048 19.0209 19.6169 19.2332C19.529 19.4456 19.4001 19.6385 19.2376 19.801C19.0751 19.9636 18.8822 20.0925 18.6699 20.1805C18.4576 20.2685 18.2301 20.3138 18.0003 20.3138C17.5361 20.3138 17.091 20.1294 16.7628 19.8012C16.4346 19.4731 16.2503 19.0279 16.2503 18.5638C16.2503 18.0997 16.4346 17.6546 16.7628 17.3264C17.091 16.9982 17.5361 16.8138 18.0003 16.8138M21.0628 14.7721C20.8694 14.7721 20.6839 14.849 20.5472 14.9857C20.4104 15.1224 20.3336 15.3079 20.3336 15.5013C20.3336 15.6947 20.4104 15.8802 20.5472 16.0169C20.6839 16.1536 20.8694 16.2305 21.0628 16.2305C21.2562 16.2305 21.4416 16.1536 21.5784 16.0169C21.7151 15.8802 21.7919 15.6947 21.7919 15.5013C21.7919 15.3079 21.7151 15.1224 21.5784 14.9857C21.4416 14.849 21.2562 14.7721 21.0628 14.7721Z" fill="white"/>
</svg>
