<svg width="36" height="37" viewBox="0 0 36 37" fill="none" xmlns="http://www.w3.org/2000/svg">
<rect y="0.563477" width="36" height="36" rx="18" fill="white" fill-opacity="0.05"/>
<rect x="0.5" y="1.06348" width="35" height="35" rx="17.5" stroke="#ECECEC" stroke-opacity="0.4"/>
<path d="M22.667 13.8965H13.3337C12.692 13.8965 12.1728 14.4215 12.1728 15.0632L12.167 22.0632C12.167 22.7048 12.692 23.2298 13.3337 23.2298H22.667C23.3087 23.2298 23.8337 22.7048 23.8337 22.0632V15.0632C23.8337 14.4215 23.3087 13.8965 22.667 13.8965ZM22.4337 16.3757L18.3095 18.954C18.1228 19.0707 17.8778 19.0707 17.6912 18.954L13.567 16.3757C13.5085 16.3428 13.4573 16.2985 13.4164 16.2452C13.3756 16.192 13.3459 16.1311 13.3293 16.0661C13.3127 16.0011 13.3095 15.9334 13.3198 15.8672C13.33 15.8009 13.3537 15.7374 13.3892 15.6805C13.4248 15.6236 13.4715 15.5745 13.5266 15.5362C13.5817 15.4979 13.6439 15.4712 13.7096 15.4577C13.7753 15.4441 13.8431 15.444 13.9088 15.4575C13.9745 15.4709 14.0368 15.4975 14.092 15.5357L18.0003 17.9798L21.9087 15.5357C21.9638 15.4975 22.0261 15.4709 22.0919 15.4575C22.1576 15.444 22.2253 15.4441 22.291 15.4577C22.3567 15.4712 22.419 15.4979 22.4741 15.5362C22.5291 15.5745 22.5759 15.6236 22.6114 15.6805C22.647 15.7374 22.6706 15.8009 22.6809 15.8672C22.6912 15.9334 22.6879 16.0011 22.6713 16.0661C22.6547 16.1311 22.6251 16.192 22.5842 16.2452C22.5434 16.2985 22.4922 16.3428 22.4337 16.3757Z" fill="white"/>
</svg>
