<svg width="36" height="37" viewBox="0 0 36 37" fill="none" xmlns="http://www.w3.org/2000/svg">
<rect y="0.563477" width="36" height="36" rx="18" fill="white" fill-opacity="0.05"/>
<rect x="0.5" y="1.06348" width="35" height="35" rx="17.5" stroke="#ECECEC" stroke-opacity="0.4"/>
<path d="M18.0003 12.7305C14.7803 12.7305 12.167 15.3438 12.167 18.5638C12.167 21.7838 14.7803 24.3971 18.0003 24.3971C21.2203 24.3971 23.8337 21.7838 23.8337 18.5638C23.8337 15.3438 21.2203 12.7305 18.0003 12.7305ZM20.707 16.6971C20.6195 17.6188 20.2403 19.8588 20.0478 20.8913C19.9662 21.3288 19.8028 21.4746 19.6512 21.4921C19.3128 21.5213 19.0562 21.2705 18.7295 21.0546C18.2162 20.7163 17.9245 20.5063 17.4287 20.1796C16.8512 19.8005 17.2245 19.5905 17.557 19.2521C17.6445 19.1646 19.1378 17.8055 19.167 17.683C19.171 17.6644 19.1705 17.6452 19.1654 17.6269C19.1603 17.6086 19.1509 17.5918 19.1378 17.578C19.1028 17.5488 19.0562 17.5605 19.0153 17.5663C18.9628 17.578 18.1462 18.1205 16.5537 19.1938C16.3203 19.3513 16.1103 19.433 15.9237 19.4271C15.7137 19.4213 15.317 19.3105 15.0195 19.2113C14.652 19.0946 14.3662 19.0305 14.3895 18.8263C14.4012 18.7213 14.547 18.6163 14.8212 18.5055C16.5245 17.7646 17.6562 17.2746 18.222 17.0413C19.8437 16.3646 20.1762 16.248 20.3978 16.248C20.4445 16.248 20.5553 16.2596 20.6253 16.318C20.6837 16.3646 20.7012 16.4288 20.707 16.4755C20.7012 16.5105 20.7128 16.6155 20.707 16.6971Z" fill="white"/>
</svg>
