<svg width="36" height="37" viewBox="0 0 36 37" fill="none" xmlns="http://www.w3.org/2000/svg">
<rect y="0.563477" width="36" height="36" rx="18" fill="white" fill-opacity="0.05"/>
<rect x="0.5" y="1.06348" width="35" height="35" rx="17.5" stroke="#ECECEC" stroke-opacity="0.4"/>
<path d="M18.1427 13.8965C18.4542 13.8982 19.2335 13.9058 20.0618 13.9391L20.3558 13.9519C21.1894 13.991 22.0224 14.0587 22.436 14.1736C22.9872 14.3287 23.4201 14.7802 23.5665 15.3531C23.7998 16.2631 23.829 18.0376 23.8325 18.4675L23.8331 18.5562V18.6577C23.829 19.0876 23.7998 20.8627 23.5665 21.7721C23.4183 22.3467 22.9849 22.7987 22.436 22.9516C22.0224 23.0665 21.1894 23.1342 20.3558 23.1732L20.0618 23.1867C19.2335 23.2193 18.4542 23.2275 18.1427 23.2287L18.0056 23.2292H17.8568C17.1977 23.2252 14.4408 23.1954 13.5635 22.9516C13.0128 22.7964 12.5794 22.3449 12.433 21.7721C12.1997 20.8621 12.1705 19.0876 12.167 18.6577V18.4675C12.1705 18.0376 12.1997 16.2625 12.433 15.3531C12.5812 14.7785 13.0146 14.3264 13.5641 14.1742C14.4408 13.9297 17.1982 13.9 17.8574 13.8965H18.1427ZM16.8331 16.5215V20.6048L20.3331 18.5632L16.8331 16.5215Z" fill="white"/>
</svg>
